<svg width="235" height="67" viewBox="0 0 235 67" fill="none" xmlns="http://www.w3.org/2000/svg">
<path d="M223.101 31.4609L219.132 39.0348H61.8734" stroke="#212529" stroke-width="2"/>
<path fill-rule="evenodd" clip-rule="evenodd" d="M44.7398 55.5719C43.2909 57.0778 41.7025 58.3075 41.2103 58.3046C40.3092 58.2982 24.3718 42.7529 22.7022 40.2513C21.8972 39.0454 21.9335 38.7392 23.0578 37.2377C23.7459 36.3188 25.1586 35.0932 26.1962 34.514L28.0831 33.4611L34.1869 39.3948C37.5436 42.6585 41.8842 47.0172 43.8319 49.0809L47.3744 52.8333L44.7398 55.5719ZM44.5886 38.9477C43.0508 40.3065 41.6128 41.4168 41.3938 41.4153C40.6049 41.4098 22.0358 22.9468 22.0414 22.1729C22.0477 21.2868 39.1484 4.25012 40.9636 3.3222C42.321 2.62819 43.0586 3.12069 45.8317 6.57276L47.7227 8.92749L40.9936 15.472C33.1908 23.0599 33.119 21.4796 41.6455 29.782C44.8068 32.8597 47.3919 35.6252 47.3897 35.9274C47.3875 36.2296 46.1271 37.589 44.5886 38.9477ZM15.5199 57.2647C10.255 62.3473 5.72776 66.5048 5.4584 66.503C4.44926 66.496 0.0315935 62.0618 0.038766 61.0632C0.0428746 60.4917 2.85863 57.321 6.29601 54.0179C9.73337 50.7148 12.5478 47.7307 12.5503 47.3869C12.5527 47.0437 9.78121 44.0555 6.39138 40.7464C3.00149 37.4379 0.231203 34.2796 0.23516 33.7288C0.244465 32.4338 4.34992 28.4923 5.67993 28.5014C6.59223 28.5077 24.339 46.0234 24.8743 47.4459C24.9937 47.7628 20.7843 52.1814 15.5199 57.2647ZM22.6775 33.492C21.3562 34.7835 19.8975 35.8381 19.4363 35.8349C18.2193 35.8265 0.349059 17.8763 0.357718 16.6711C0.361735 16.1119 1.48183 14.585 2.84676 13.277L5.32849 10.8987L7.04456 12.12C9.80233 14.0826 25.0915 29.5672 25.0856 30.3911C25.0827 30.8049 23.9989 32.2 22.6775 33.492Z" fill="url(#paint0_linear_1_825)"/>
<path d="M65.0391 44.5523C65.5139 44.5523 65.9511 44.6176 66.3509 44.7481C66.7591 44.8704 67.1047 45.0499 67.3879 45.2864C67.6794 45.523 67.9043 45.8166 68.0626 46.1673C68.2291 46.5099 68.3124 46.9096 68.3124 47.3663C68.3124 47.7171 68.2583 48.0637 68.15 48.4063C68.0417 48.7489 67.8668 49.0588 67.6253 49.3361C67.3837 49.6135 67.0672 49.8378 66.6758 50.009C66.2843 50.1722 65.797 50.2537 65.214 50.2537H63.8897V53.4348H62.5529V44.5523H65.0391ZM65.189 49.0058C65.5305 49.0058 65.8137 48.9528 66.0386 48.8467C66.2718 48.7407 66.4509 48.6102 66.5758 48.4552C66.7091 48.2921 66.8007 48.1208 66.8507 47.9414C66.909 47.7538 66.9381 47.5743 66.9381 47.403C66.9381 47.2399 66.909 47.0686 66.8507 46.8892C66.8007 46.7097 66.7091 46.5384 66.5758 46.3753C66.4509 46.2122 66.2801 46.0776 66.0636 45.9716C65.847 45.8655 65.5805 45.8125 65.264 45.8125H63.8897V49.0058H65.189ZM66.7257 49.7644L69.0746 53.4348H67.5253L65.139 49.8011L66.7257 49.7644ZM73.4777 53.5571C72.8697 53.5571 72.3491 53.4429 71.916 53.2146C71.4829 52.978 71.1497 52.6558 70.9165 52.248C70.6833 51.832 70.5667 51.359 70.5667 50.8288C70.5667 50.3231 70.6958 49.8663 70.954 49.4585C71.2205 49.0425 71.5745 48.7122 72.0159 48.4675C72.4657 48.2228 72.9613 48.1004 73.5027 48.1004C74.2023 48.1004 74.7812 48.3003 75.2393 48.6999C75.7057 49.0996 76.0181 49.6583 76.1763 50.3761L71.916 51.8198L71.6161 51.0857L75.0269 49.8867L74.7645 50.0458C74.6646 49.7929 74.5063 49.5727 74.2898 49.3851C74.0732 49.1893 73.7775 49.0914 73.4027 49.0914C73.1029 49.0914 72.8322 49.1648 72.5906 49.3117C72.3574 49.4503 72.17 49.6461 72.0284 49.8989C71.8951 50.1436 71.8285 50.4332 71.8285 50.7676C71.8285 51.1102 71.8993 51.412 72.0409 51.673C72.1908 51.9258 72.3907 52.1257 72.6406 52.2725C72.8988 52.4193 73.1862 52.4927 73.5027 52.4927C73.7276 52.4927 73.9399 52.4519 74.1398 52.3704C74.3481 52.2888 74.5438 52.1868 74.727 52.0645L75.3143 52.9943C75.0394 53.1656 74.7395 53.3043 74.4147 53.4103C74.0982 53.5082 73.7859 53.5571 73.4777 53.5571ZM80.2207 53.5694L77.2597 48.3084H78.7839L80.7079 52.2725L79.9208 52.2358L81.67 48.3084H83.1067L80.2707 53.5694H80.2207ZM84.346 50.8165C84.346 50.3027 84.4709 49.8418 84.7208 49.434C84.9707 49.018 85.3163 48.6918 85.7578 48.4552C86.1992 48.2187 86.7031 48.1004 87.2695 48.1004C87.8442 48.1004 88.3481 48.2187 88.7812 48.4552C89.2143 48.6918 89.5475 49.018 89.7807 49.434C90.0223 49.8418 90.143 50.3027 90.143 50.8165C90.143 51.3304 90.0223 51.7953 89.7807 52.2113C89.5475 52.6273 89.2143 52.9576 88.7812 53.2023C88.3481 53.4389 87.84 53.5571 87.257 53.5571C86.699 53.5571 86.1992 53.447 85.7578 53.2268C85.3247 53.0066 84.979 52.6925 84.7208 52.2847C84.4709 51.8687 84.346 51.3793 84.346 50.8165ZM85.6453 50.8288C85.6453 51.1469 85.7161 51.4364 85.8577 51.6974C85.9993 51.9503 86.1909 52.1542 86.4324 52.3092C86.674 52.456 86.9447 52.5294 87.2445 52.5294C87.5527 52.5294 87.8276 52.456 88.0691 52.3092C88.3106 52.1542 88.498 51.9503 88.6313 51.6974C88.7729 51.4364 88.8437 51.1469 88.8437 50.8288C88.8437 50.5107 88.7729 50.2252 88.6313 49.9723C88.498 49.7195 88.3106 49.5156 88.0691 49.3606C87.8276 49.2056 87.5527 49.1281 87.2445 49.1281C86.9363 49.1281 86.6615 49.2056 86.4199 49.3606C86.1784 49.5156 85.9868 49.7236 85.8452 49.9846C85.712 50.2374 85.6453 50.5188 85.6453 50.8288ZM92.2896 43.9284H93.5764V53.4348H92.2896V43.9284ZM97.8338 53.6428C97.3507 53.6428 96.9551 53.5 96.6469 53.2146C96.3387 52.9291 96.1763 52.562 96.1596 52.1134V48.3084H97.4465V51.6607C97.4631 51.9218 97.5381 52.1379 97.6714 52.3092C97.813 52.4723 98.0379 52.558 98.346 52.5661C98.6292 52.5661 98.8791 52.4846 99.0957 52.3214C99.3205 52.1501 99.4955 51.9218 99.6204 51.6363C99.7537 51.3426 99.8203 51.0082 99.8203 50.633V48.3084H101.107V53.4348H99.9452L99.8453 52.248L99.8952 52.4438C99.787 52.6722 99.6329 52.8801 99.433 53.0677C99.2331 53.2472 98.9957 53.3858 98.7208 53.4837C98.446 53.5898 98.1503 53.6428 97.8338 53.6428ZM104.202 46.0572H105.489V48.3206H106.888V49.3117H105.489V53.4348H104.202V49.3117H103.277V48.3206H104.202V46.0572ZM108.902 48.3084H110.189V53.4348H108.902V48.3084ZM108.827 46.4732C108.827 46.2774 108.906 46.1143 109.064 45.9838C109.223 45.8533 109.393 45.788 109.577 45.788C109.768 45.788 109.939 45.8533 110.089 45.9838C110.239 46.1143 110.314 46.2774 110.314 46.4732C110.314 46.669 110.239 46.8321 110.089 46.9626C109.939 47.0849 109.768 47.1461 109.577 47.1461C109.393 47.1461 109.223 47.0849 109.064 46.9626C108.906 46.8321 108.827 46.669 108.827 46.4732ZM112.323 50.8165C112.323 50.3027 112.448 49.8418 112.698 49.434C112.948 49.018 113.293 48.6918 113.735 48.4552C114.176 48.2187 114.68 48.1004 115.246 48.1004C115.821 48.1004 116.325 48.2187 116.758 48.4552C117.191 48.6918 117.524 49.018 117.758 49.434C117.999 49.8418 118.12 50.3027 118.12 50.8165C118.12 51.3304 117.999 51.7953 117.758 52.2113C117.524 52.6273 117.191 52.9576 116.758 53.2023C116.325 53.4389 115.817 53.5571 115.234 53.5571C114.676 53.5571 114.176 53.447 113.735 53.2268C113.302 53.0066 112.956 52.6925 112.698 52.2847C112.448 51.8687 112.323 51.3793 112.323 50.8165ZM113.622 50.8288C113.622 51.1469 113.693 51.4364 113.835 51.6974C113.976 51.9503 114.168 52.1542 114.409 52.3092C114.651 52.456 114.922 52.5294 115.221 52.5294C115.53 52.5294 115.804 52.456 116.046 52.3092C116.288 52.1542 116.475 51.9503 116.608 51.6974C116.75 51.4364 116.821 51.1469 116.821 50.8288C116.821 50.5107 116.75 50.2252 116.608 49.9723C116.475 49.7195 116.288 49.5156 116.046 49.3606C115.804 49.2056 115.53 49.1281 115.221 49.1281C114.913 49.1281 114.638 49.2056 114.397 49.3606C114.155 49.5156 113.964 49.7236 113.822 49.9846C113.689 50.2374 113.622 50.5188 113.622 50.8288ZM121.415 48.3084L121.528 49.483L121.478 49.3239C121.653 48.9569 121.923 48.6632 122.29 48.443C122.656 48.2146 123.089 48.1004 123.589 48.1004C124.081 48.1004 124.485 48.2432 124.801 48.5286C125.126 48.8141 125.292 49.1852 125.301 49.642V53.4348H124.014V50.0825C124.006 49.8214 123.927 49.6094 123.777 49.4462C123.627 49.275 123.393 49.1852 123.077 49.1771C122.794 49.1771 122.536 49.2627 122.302 49.434C122.069 49.5971 121.886 49.8214 121.753 50.1069C121.619 50.3924 121.553 50.7227 121.553 51.0979V53.4348H120.266V48.3084H121.415ZM127.894 48.3084H129.181V53.4348H127.894V48.3084ZM127.819 46.4732C127.819 46.2774 127.898 46.1143 128.057 45.9838C128.215 45.8533 128.386 45.788 128.569 45.788C128.76 45.788 128.931 45.8533 129.081 45.9838C129.231 46.1143 129.306 46.2774 129.306 46.4732C129.306 46.669 129.231 46.8321 129.081 46.9626C128.931 47.0849 128.76 47.1461 128.569 47.1461C128.386 47.1461 128.215 47.0849 128.057 46.9626C127.898 46.8321 127.819 46.669 127.819 46.4732ZM132.326 49.3361C132.06 49.3361 131.831 49.2546 131.639 49.0914C131.448 48.9202 131.352 48.6755 131.352 48.3574V47.819H132.314V47.9903C132.314 48.129 132.347 48.2187 132.414 48.2595C132.481 48.2921 132.589 48.3084 132.739 48.3084H136.087L133.001 52.664L132.751 52.4071H136.037V53.4348H131.102L134.263 48.9813L134.463 49.3361H132.326ZM138.319 48.3084H139.605V53.4348H138.319V48.3084ZM138.244 46.4732C138.244 46.2774 138.323 46.1143 138.481 45.9838C138.639 45.8533 138.81 45.788 138.993 45.788C139.185 45.788 139.356 45.8533 139.506 45.9838C139.655 46.1143 139.73 46.2774 139.73 46.4732C139.73 46.669 139.655 46.8321 139.506 46.9626C139.356 47.0849 139.185 47.1461 138.993 47.1461C138.81 47.1461 138.639 47.0849 138.481 46.9626C138.323 46.8321 138.244 46.669 138.244 46.4732ZM143.338 48.3084L143.451 49.483L143.401 49.3239C143.575 48.9569 143.846 48.6632 144.213 48.443C144.579 48.2146 145.012 48.1004 145.512 48.1004C146.003 48.1004 146.407 48.2432 146.724 48.5286C147.049 48.8141 147.215 49.1852 147.224 49.642V53.4348H145.937V50.0825C145.928 49.8214 145.849 49.6094 145.699 49.4462C145.549 49.275 145.316 49.1852 145 49.1771C144.717 49.1771 144.458 49.2627 144.225 49.434C143.992 49.5971 143.809 49.8214 143.675 50.1069C143.542 50.3924 143.476 50.7227 143.476 51.0979V53.4348H142.189V48.3084H143.338ZM152.378 55.9796C151.969 55.9796 151.615 55.9348 151.316 55.845C151.016 55.7553 150.745 55.6289 150.504 55.4658C150.27 55.3108 150.045 55.1436 149.829 54.9641L150.591 54.0955C150.849 54.332 151.116 54.5196 151.391 54.6583C151.665 54.8051 151.986 54.8785 152.353 54.8785C152.719 54.8785 153.031 54.8173 153.29 54.695C153.556 54.5808 153.76 54.4176 153.902 54.2056C154.043 53.9935 154.114 53.7407 154.114 53.447L154.127 52.1134L154.214 52.3581C154.073 52.6925 153.81 52.978 153.427 53.2146C153.044 53.4429 152.573 53.5571 152.015 53.5571C151.541 53.5571 151.099 53.4389 150.691 53.2023C150.291 52.9658 149.97 52.6436 149.729 52.2358C149.487 51.828 149.367 51.3671 149.367 50.8532C149.367 50.3149 149.492 49.8418 149.741 49.434C150 49.018 150.337 48.6918 150.753 48.4552C151.17 48.2105 151.615 48.0882 152.09 48.0882C152.557 48.0882 152.973 48.1779 153.34 48.3574C153.706 48.5286 153.981 48.7448 154.164 49.0058L154.089 49.2138L154.227 48.3084H155.414V53.4593C155.414 53.9323 155.284 54.3565 155.026 54.7317C154.776 55.115 154.427 55.4168 153.977 55.637C153.527 55.8654 152.994 55.9796 152.378 55.9796ZM150.666 50.8165C150.666 51.1346 150.741 51.4242 150.891 51.6852C151.041 51.9462 151.245 52.1542 151.503 52.3092C151.77 52.456 152.065 52.5294 152.39 52.5294C152.682 52.5294 152.944 52.4805 153.177 52.3826C153.41 52.2766 153.606 52.1379 153.764 51.9666C153.931 51.7872 154.052 51.5792 154.127 51.3426V50.2782C154.052 50.0417 153.931 49.8418 153.764 49.6787C153.598 49.5074 153.398 49.3728 153.165 49.275C152.931 49.1771 152.673 49.1281 152.39 49.1281C152.065 49.1281 151.77 49.2016 151.503 49.3484C151.245 49.487 151.041 49.6828 150.891 49.9356C150.741 50.1885 150.666 50.4821 150.666 50.8165ZM162.895 44.5523H164.232V53.4348H162.895V44.5523ZM166.738 44.5523H172.785V45.8125H170.398V53.4348H169.061V45.8125H166.738V44.5523ZM184.621 46.253C184.304 46.0898 183.963 45.9512 183.596 45.837C183.23 45.7228 182.876 45.6657 182.534 45.6657C182.068 45.6657 181.697 45.7717 181.422 45.9838C181.148 46.1877 181.01 46.4691 181.01 46.828C181.01 47.0809 181.102 47.3011 181.285 47.4887C181.468 47.6763 181.706 47.8394 181.997 47.9781C182.289 48.1167 182.597 48.2472 182.922 48.3696C183.196 48.4675 183.467 48.5857 183.734 48.7244C184.009 48.8549 184.254 49.018 184.471 49.2138C184.696 49.4095 184.871 49.6542 184.996 49.9479C185.129 50.2334 185.195 50.5841 185.195 51.0001C185.195 51.4731 185.075 51.9014 184.833 52.2847C184.6 52.6681 184.258 52.9739 183.809 53.2023C183.367 53.4226 182.83 53.5327 182.197 53.5327C181.814 53.5327 181.439 53.4919 181.073 53.4103C180.714 53.3206 180.373 53.2064 180.048 53.0677C179.732 52.9209 179.444 52.7619 179.186 52.5906L179.786 51.5751C179.986 51.7138 180.215 51.8483 180.473 51.9788C180.731 52.1012 180.998 52.1991 181.272 52.2725C181.556 52.3459 181.822 52.3826 182.072 52.3826C182.347 52.3826 182.618 52.3377 182.884 52.248C183.151 52.1501 183.371 52.0033 183.546 51.8076C183.721 51.6036 183.809 51.3386 183.809 51.0123C183.809 50.735 183.73 50.5025 183.571 50.3149C183.421 50.1192 183.217 49.952 182.959 49.8133C182.709 49.6746 182.439 49.5523 182.147 49.4462C181.864 49.3402 181.576 49.2219 181.285 49.0914C180.993 48.9609 180.723 48.806 180.473 48.6265C180.223 48.4389 180.019 48.2105 179.861 47.9414C179.711 47.664 179.636 47.3256 179.636 46.9259C179.636 46.4528 179.748 46.0409 179.973 45.6902C180.206 45.3313 180.527 45.0499 180.935 44.846C181.343 44.6421 181.814 44.5279 182.347 44.5034C182.955 44.5034 183.484 44.5768 183.934 44.7236C184.383 44.8704 184.783 45.0458 185.133 45.2497L184.621 46.253ZM187.058 50.8165C187.058 50.3027 187.183 49.8418 187.432 49.434C187.682 49.018 188.028 48.6918 188.469 48.4552C188.911 48.2187 189.415 48.1004 189.981 48.1004C190.556 48.1004 191.06 48.2187 191.493 48.4552C191.926 48.6918 192.259 49.018 192.492 49.434C192.734 49.8418 192.855 50.3027 192.855 50.8165C192.855 51.3304 192.734 51.7953 192.492 52.2113C192.259 52.6273 191.926 52.9576 191.493 53.2023C191.06 53.4389 190.552 53.5571 189.969 53.5571C189.411 53.5571 188.911 53.447 188.469 53.2268C188.036 53.0066 187.691 52.6925 187.432 52.2847C187.183 51.8687 187.058 51.3793 187.058 50.8165ZM188.357 50.8288C188.357 51.1469 188.428 51.4364 188.569 51.6974C188.711 51.9503 188.903 52.1542 189.144 52.3092C189.386 52.456 189.656 52.5294 189.956 52.5294C190.264 52.5294 190.539 52.456 190.781 52.3092C191.022 52.1542 191.21 51.9503 191.343 51.6974C191.485 51.4364 191.555 51.1469 191.555 50.8288C191.555 50.5107 191.485 50.2252 191.343 49.9723C191.21 49.7195 191.022 49.5156 190.781 49.3606C190.539 49.2056 190.264 49.1281 189.956 49.1281C189.648 49.1281 189.373 49.2056 189.132 49.3606C188.89 49.5156 188.698 49.7236 188.557 49.9846C188.424 50.2374 188.357 50.5188 188.357 50.8288ZM195.001 43.9284H196.288V53.4348H195.001V43.9284ZM200.545 53.6428C200.062 53.6428 199.667 53.5 199.359 53.2146C199.05 52.9291 198.888 52.562 198.871 52.1134V48.3084H200.158V51.6607C200.175 51.9218 200.25 52.1379 200.383 52.3092C200.525 52.4723 200.75 52.558 201.058 52.5661C201.341 52.5661 201.591 52.4846 201.807 52.3214C202.032 52.1501 202.207 51.9218 202.332 51.6363C202.465 51.3426 202.532 51.0082 202.532 50.633V48.3084H203.819V53.4348H202.657L202.557 52.248L202.607 52.4438C202.499 52.6722 202.345 52.8801 202.145 53.0677C201.945 53.2472 201.707 53.3858 201.432 53.4837C201.158 53.5898 200.862 53.6428 200.545 53.6428ZM206.914 46.0572H208.2V48.3206H209.6V49.3117H208.2V53.4348H206.914V49.3117H205.989V48.3206H206.914V46.0572ZM211.614 48.3084H212.9V53.4348H211.614V48.3084ZM211.539 46.4732C211.539 46.2774 211.618 46.1143 211.776 45.9838C211.934 45.8533 212.105 45.788 212.288 45.788C212.48 45.788 212.651 45.8533 212.801 45.9838C212.95 46.1143 213.025 46.2774 213.025 46.4732C213.025 46.669 212.95 46.8321 212.801 46.9626C212.651 47.0849 212.48 47.1461 212.288 47.1461C212.105 47.1461 211.934 47.0849 211.776 46.9626C211.618 46.8321 211.539 46.669 211.539 46.4732ZM215.034 50.8165C215.034 50.3027 215.159 49.8418 215.409 49.434C215.659 49.018 216.004 48.6918 216.446 48.4552C216.887 48.2187 217.391 48.1004 217.957 48.1004C218.532 48.1004 219.036 48.2187 219.469 48.4552C219.902 48.6918 220.235 49.018 220.469 49.434C220.71 49.8418 220.831 50.3027 220.831 50.8165C220.831 51.3304 220.71 51.7953 220.469 52.2113C220.235 52.6273 219.902 52.9576 219.469 53.2023C219.036 53.4389 218.528 53.5571 217.945 53.5571C217.387 53.5571 216.887 53.447 216.446 53.2268C216.013 53.0066 215.667 52.6925 215.409 52.2847C215.159 51.8687 215.034 51.3793 215.034 50.8165ZM216.333 50.8288C216.333 51.1469 216.404 51.4364 216.546 51.6974C216.687 51.9503 216.879 52.1542 217.12 52.3092C217.362 52.456 217.633 52.5294 217.932 52.5294C218.241 52.5294 218.516 52.456 218.757 52.3092C218.999 52.1542 219.186 51.9503 219.319 51.6974C219.461 51.4364 219.532 51.1469 219.532 50.8288C219.532 50.5107 219.461 50.2252 219.319 49.9723C219.186 49.7195 218.999 49.5156 218.757 49.3606C218.516 49.2056 218.241 49.1281 217.932 49.1281C217.624 49.1281 217.349 49.2056 217.108 49.3606C216.866 49.5156 216.675 49.7236 216.533 49.9846C216.4 50.2374 216.333 50.5188 216.333 50.8288ZM224.127 48.3084L224.239 49.483L224.189 49.3239C224.364 48.9569 224.635 48.6632 225.002 48.443C225.368 48.2146 225.801 48.1004 226.301 48.1004C226.792 48.1004 227.196 48.2432 227.513 48.5286C227.838 48.8141 228.004 49.1852 228.012 49.642V53.4348H226.726V50.0825C226.717 49.8214 226.638 49.6094 226.488 49.4462C226.338 49.275 226.105 49.1852 225.789 49.1771C225.505 49.1771 225.247 49.2627 225.014 49.434C224.781 49.5971 224.598 49.8214 224.464 50.1069C224.331 50.3924 224.264 50.7227 224.264 51.0979V53.4348H222.978V48.3084H224.127ZM232.13 53.5449C231.747 53.5449 231.376 53.4796 231.018 53.3491C230.66 53.2105 230.364 53.0106 230.131 52.7496L230.681 52.04C230.906 52.2439 231.131 52.3989 231.355 52.5049C231.589 52.6028 231.809 52.6518 232.018 52.6518C232.184 52.6518 232.334 52.6354 232.467 52.6028C232.601 52.562 232.709 52.4968 232.792 52.4071C232.875 52.3173 232.917 52.1991 232.917 52.0523C232.917 51.881 232.859 51.7464 232.742 51.6485C232.626 51.5506 232.476 51.4691 232.292 51.4038C232.109 51.3386 231.913 51.2774 231.705 51.2203C231.264 51.0816 230.931 50.8859 230.706 50.633C230.481 50.372 230.368 50.0661 230.368 49.7154C230.368 49.4462 230.435 49.1934 230.568 48.9569C230.71 48.7122 230.922 48.5123 231.206 48.3574C231.489 48.2024 231.839 48.1249 232.255 48.1249C232.638 48.1249 232.975 48.1698 233.267 48.2595C233.558 48.341 233.829 48.4838 234.079 48.6877L233.579 49.4462C233.429 49.2994 233.25 49.1893 233.042 49.1159C232.842 49.0343 232.659 48.9895 232.492 48.9813C232.342 48.9813 232.205 49.0058 232.08 49.0547C231.955 49.0955 231.855 49.1608 231.78 49.2505C231.705 49.3321 231.668 49.4299 231.668 49.5441C231.659 49.7073 231.714 49.8418 231.83 49.9479C231.955 50.0458 232.113 50.1273 232.305 50.1926C232.497 50.2497 232.684 50.3108 232.867 50.3761C233.125 50.4495 233.354 50.5515 233.554 50.682C233.754 50.8043 233.912 50.9552 234.029 51.1346C234.146 51.3141 234.204 51.5425 234.204 51.8198C234.204 52.1216 234.129 52.4071 233.979 52.6762C233.829 52.9372 233.6 53.1493 233.292 53.3124C232.984 53.4674 232.596 53.5449 232.13 53.5449Z" fill="#212529"/>
<path d="M78.5638 25.026L83.2935 11.5939H88.5908L79.289 34.413L72.352 20.209L65.3835 34.413L56.1135 11.5939H61.4105L66.2034 25.026L72.352 10.5132L78.5638 25.026ZM95.0846 33.5175C93.508 33.5175 92.1313 33.2087 90.9539 32.5911C89.7765 31.9736 88.8621 31.1193 88.2107 30.0282C87.58 28.9166 87.2647 27.6094 87.2647 26.1067C87.2647 24.5834 87.58 23.2762 88.2107 22.1852C88.8621 21.0735 89.7765 20.2193 90.9539 19.6223C92.1313 19.0047 93.5187 18.6959 95.1161 18.6959C96.7135 18.6959 98.0694 18.9841 99.1837 19.5605C100.319 20.1163 101.181 20.9397 101.769 22.0308C102.358 23.1012 102.652 24.3981 102.652 25.9214C102.652 26.1067 102.641 26.3023 102.621 26.5081C102.621 26.714 102.61 26.8787 102.589 27.0022H89.598V24.5319H99.026L97.9224 25.9523C98.0063 25.8288 98.0801 25.6641 98.1431 25.4583C98.227 25.2318 98.2692 25.0465 98.2692 24.9024C98.2692 24.2026 98.1324 23.6056 97.8593 23.1115C97.6071 22.6175 97.2394 22.2264 96.7557 21.9381C96.2721 21.6499 95.7045 21.5058 95.053 21.5058C94.254 21.5058 93.5817 21.6808 93.035 22.0308C92.5097 22.3601 92.0998 22.8645 91.8053 23.5438C91.5322 24.2026 91.3846 25.026 91.3638 26.0141C91.3638 26.961 91.5007 27.7638 91.7737 28.4226C92.0682 29.0813 92.499 29.5856 93.0665 29.9356C93.6341 30.2856 94.3171 30.4605 95.1161 30.4605C96.0198 30.4605 96.7873 30.2958 97.4179 29.9665C98.0693 29.6165 98.6054 29.1019 99.026 28.4226L102.589 29.5033C101.832 30.8414 100.823 31.8501 99.562 32.5294C98.3216 33.1881 96.8295 33.5175 95.0846 33.5175ZM109.737 9.12366V33.2087H105.638V9.12366H109.737ZM121.656 26.1067C121.656 27.6712 121.33 29.0093 120.678 30.1209C120.027 31.2325 119.165 32.0765 118.093 32.6529C117.042 33.2293 115.907 33.5175 114.687 33.5175C113.489 33.5175 112.417 33.219 111.471 32.622C110.546 32.025 109.81 31.1707 109.264 30.0591C108.718 28.9475 108.444 27.63 108.444 26.1067C108.444 24.5628 108.718 23.2453 109.264 22.1543C109.81 21.0427 110.546 20.1884 111.471 19.5914C112.417 18.9944 113.489 18.6959 114.687 18.6959C115.907 18.6959 117.042 18.9841 118.093 19.5605C119.165 20.1369 120.027 20.9809 120.678 22.0925C121.33 23.1836 121.656 24.5216 121.656 26.1067ZM117.43 26.1067C117.43 25.2627 117.252 24.5319 116.894 23.9143C116.537 23.2968 116.054 22.8233 115.444 22.4939C114.855 22.1646 114.204 21.9999 113.489 21.9999C112.88 21.9999 112.281 22.1646 111.692 22.4939C111.124 22.8027 110.651 23.2659 110.273 23.8835C109.916 24.501 109.737 25.2421 109.737 26.1067C109.737 26.9713 109.916 27.7124 110.273 28.3299C110.651 28.9475 111.124 29.421 111.692 29.7503C112.281 30.0591 112.88 30.2135 113.489 30.2135C114.204 30.2135 114.855 30.0488 115.444 29.7195C116.054 29.3901 116.537 28.9166 116.894 28.2991C117.252 27.6815 117.43 26.9507 117.43 26.1067ZM153.467 28.7931C153.467 29.2048 153.573 29.5651 153.783 29.8738C153.993 30.1621 154.277 30.3885 154.634 30.5532C155.013 30.6973 155.422 30.7693 155.864 30.7693C156.495 30.7693 157.062 30.6458 157.567 30.3988C158.071 30.1312 158.481 29.7606 158.796 29.2872C159.112 28.7931 159.269 28.2064 159.269 27.5271L159.774 29.3798C159.774 30.2856 159.511 31.0472 158.986 31.6648C158.481 32.2824 157.819 32.7455 156.999 33.0543C156.2 33.3631 155.359 33.5175 154.476 33.5175C153.573 33.5175 152.732 33.3425 151.954 32.9926C151.176 32.6426 150.546 32.1383 150.062 31.4795C149.6 30.8002 149.368 29.9768 149.368 29.0093C149.368 27.63 149.862 26.539 150.85 25.7362C151.839 24.9333 153.236 24.5319 155.044 24.5319C155.969 24.5319 156.778 24.6245 157.472 24.8098C158.187 24.9951 158.786 25.2215 159.269 25.4891C159.753 25.7567 160.1 26.0141 160.31 26.2611V28.1138C159.742 27.7021 159.101 27.3933 158.386 27.1874C157.693 26.9816 156.957 26.8787 156.179 26.8787C155.549 26.8787 155.033 26.961 154.634 27.1257C154.235 27.2698 153.94 27.4859 153.751 27.7741C153.562 28.0417 153.467 28.3814 153.467 28.7931ZM151.891 23.0189L150.377 20.3016C151.134 19.9105 152.059 19.5399 153.152 19.19C154.245 18.8194 155.465 18.6342 156.81 18.6342C158.05 18.6342 159.154 18.8091 160.121 19.1591C161.087 19.5091 161.844 20.0237 162.391 20.703C162.938 21.3618 163.211 22.1748 163.211 23.1424V33.2087H159.269V23.9761C159.269 23.585 159.206 23.2556 159.08 22.988C158.954 22.6998 158.754 22.4631 158.481 22.2778C158.229 22.0925 157.924 21.9587 157.567 21.8764C157.209 21.7941 156.81 21.7529 156.368 21.7529C155.696 21.7529 155.055 21.8249 154.445 21.969C153.835 22.1131 153.31 22.2881 152.868 22.4939C152.427 22.6998 152.101 22.8748 151.891 23.0189ZM164.775 19.0047H169.158L172.721 27.558L176.284 19.0047H180.667L172.721 34.6909L164.775 19.0047ZM189.002 33.5175C187.425 33.5175 186.049 33.2087 184.871 32.5911C183.694 31.9736 182.78 31.1193 182.128 30.0282C181.497 28.9166 181.182 27.6094 181.182 26.1067C181.182 24.5834 181.497 23.2762 182.128 22.1852C182.78 21.0735 183.694 20.2193 184.871 19.6223C186.049 19.0047 187.436 18.6959 189.033 18.6959C190.631 18.6959 191.987 18.9841 193.101 19.5605C194.236 20.1163 195.098 20.9397 195.687 22.0308C196.276 23.1012 196.569 24.3981 196.569 25.9214C196.569 26.1067 196.559 26.3023 196.538 26.5081C196.538 26.714 196.528 26.8787 196.506 27.0022H183.515V24.5319H192.943L191.84 25.9523C191.924 25.8288 191.997 25.6641 192.06 25.4583C192.145 25.2318 192.187 25.0465 192.187 24.9024C192.187 24.2026 192.05 23.6056 191.777 23.1115C191.524 22.6175 191.157 22.2264 190.673 21.9381C190.19 21.6499 189.622 21.5058 188.97 21.5058C188.172 21.5058 187.499 21.6808 186.952 22.0308C186.427 22.3601 186.017 22.8645 185.723 23.5438C185.449 24.2026 185.303 25.026 185.281 26.0141C185.281 26.961 185.418 27.7638 185.691 28.4226C185.986 29.0813 186.416 29.5856 186.984 29.9356C187.551 30.2856 188.235 30.4605 189.033 30.4605C189.938 30.4605 190.705 30.2958 191.335 29.9665C191.987 29.6165 192.523 29.1019 192.943 28.4226L196.506 29.5033C195.75 30.8414 194.741 31.8501 193.479 32.5294C192.239 33.1881 190.747 33.5175 189.002 33.5175ZM203.655 19.0047V33.2087H199.65V19.0047H203.655ZM207.911 23.1733C207.638 22.9262 207.354 22.741 207.06 22.6175C206.786 22.4734 206.439 22.4013 206.019 22.4013C205.515 22.4013 205.084 22.5351 204.727 22.8027C204.369 23.0703 204.096 23.4512 203.907 23.9452C203.738 24.4187 203.655 24.9951 203.655 25.6744L202.519 24.5628C202.519 23.4306 202.74 22.4322 203.182 21.5676C203.623 20.6824 204.201 19.9825 204.916 19.4679C205.63 18.9326 206.366 18.665 207.123 18.665C207.648 18.665 208.142 18.7577 208.605 18.9429C209.088 19.1282 209.477 19.4061 209.772 19.7767L207.911 23.1733ZM229.325 19.0047H233.834L228.474 25.8906L234.15 33.2087H229.641L226.362 28.7005L223.145 33.2087H218.479L224.217 25.8906L218.794 19.0047H223.461L226.362 23.1115L229.325 19.0047Z" fill="#212529"/>
<path d="M146.678 24.0687V33.2087H141.885V24.5628C141.885 23.6982 141.738 23.0498 141.444 22.6175C141.171 22.1646 140.708 21.9381 140.056 21.9381C139.636 21.9381 139.258 22.0411 138.921 22.2469C138.606 22.4322 138.354 22.7204 138.165 23.1115C137.997 23.5026 137.912 23.9864 137.912 24.5628V33.2087H133.119V24.5628C133.119 23.6982 132.973 23.0498 132.678 22.6175C132.405 22.1646 131.943 21.9381 131.291 21.9381C130.871 21.9381 130.492 22.0411 130.155 22.2469C129.84 22.4322 129.588 22.7204 129.399 23.1115C129.231 23.5026 129.146 23.9864 129.146 24.5628V33.2087H124.543V19.0047H129.146V21.1044C129.546 20.3428 130.092 19.7458 130.786 19.3135C131.501 18.8812 132.353 18.665 133.34 18.665C134.475 18.665 135.38 18.8709 136.052 19.2826C136.725 19.6737 137.208 20.2501 137.502 21.0118C138.028 20.2707 138.68 19.6943 139.457 19.2826C140.235 18.8709 141.118 18.665 142.106 18.665C143.241 18.665 144.135 18.8812 144.786 19.3135C145.459 19.7252 145.943 20.3325 146.237 21.1353C146.531 21.9381 146.678 22.9159 146.678 24.0687Z" fill="#1351D8"/>
<path d="M216.201 18.993H212.214V33.2087H216.201V18.993Z" fill="#212529"/>
<path d="M214.177 15.7304C215.656 15.7304 216.854 14.5566 216.854 13.1087C216.854 11.6607 215.656 10.487 214.177 10.487C212.699 10.487 211.5 11.6607 211.5 13.1087C211.5 14.5566 212.699 15.7304 214.177 15.7304Z" fill="#1351D8"/>
<defs>
<linearGradient id="paint0_linear_1_825" x1="5.94958" y1="19.8087" x2="44.7479" y2="56.4491" gradientUnits="userSpaceOnUse">
<stop stop-color="#6A4EF8"/>
<stop offset="1" stop-color="#0890EC"/>
</linearGradient>
</defs>
</svg>
